Coordinates
version=1
nRows=21
nColumns=38
inDegrees=no

Units are S.I. units (second, meters, Newtons, ...)
If the header above contains a line with 'inDegrees', this indicates whether rotational values are in degrees (yes) or radians (no).

endheader
time	pelvis_tilt	pelvis_list	pelvis_rotation	pelvis_tx	pelvis_ty	pelvis_tz	hip_flexion_r	hip_adduction_r	hip_rotation_r	knee_angle_r	ankle_angle_r	subtalar_angle_r	mtp_angle_r	hip_flexion_l	hip_adduction_l	hip_rotation_l	knee_angle_l	ankle_angle_l	subtalar_angle_l	mtp_angle_l	lumbar_extension	lumbar_bending	lumbar_rotation	arm_flex_r	arm_add_r	arm_rot_r	elbow_flex_r	pro_sup_r	wrist_flex_r	wrist_dev_r	arm_flex_l	arm_add_l	arm_rot_l	elbow_flex_l	pro_sup_l	wrist_flex_l	wrist_dev_l
0.008333	-0.0324158	-0.0785112	0.102759	0.762477	0.997657	-0.402518	0.856951	-0.0570798	-0.194361	-1.76761	0.232894	0.0999988	-0.0422679	-0.350303	-0.180239	-0.385368	-0.368523	-0.0424493	0.0999999	-0.036774	-0.241531	0.10528	-0.329934	-0.710026	-0.588184	-0.146281	1.68075	1.26151	0.0656517	0.0997237	0.0967386	-0.54045	-0.059995	2.39214	1.52663	0.0205341	-0.0811922
0.016667	-0.0467943	-0.0750072	0.0876788	0.763599	1.00022	-0.40158	0.872899	-0.0465876	-0.191911	-1.62919	0.255855	0.0999988	-0.0422679	-0.363518	-0.173419	-0.375528	-0.388508	-0.135525	0.0999999	-0.036774	-0.228723	0.102522	-0.332715	-0.734742	-0.596512	-0.166445	1.69098	1.26881	0.0656517	0.0997237	0.0784656	-0.549757	-0.033893	2.40638	1.55013	0.0205341	-0.0811922
0.025	-0.0584358	-0.0702318	0.0733002	0.764418	1.00231	-0.400726	0.87946	-0.0365854	-0.190513	-1.48981	0.27681	0.0999988	-0.0422679	-0.372197	-0.16437	-0.359088	-0.422815	-0.210072	0.0999999	-0.036774	-0.219529	0.0986216	-0.334628	-0.755001	-0.603449	-0.185999	1.70054	1.27438	0.0656517	0.0997237	0.0569179	-0.556819	-0.0113589	2.41657	1.57237	0.0205341	-0.0811922
0.033333	-0.067309	-0.0642232	0.0596311	0.764994	1.00393	-0.399961	0.876736	-0.0270909	-0.1902	-1.34974	0.295696	0.0999988	-0.0422679	-0.376444	-0.153176	-0.336426	-0.471272	-0.266526	0.0999999	-0.036774	-0.213953	0.0936237	-0.335655	-0.770822	-0.609004	-0.204951	1.70943	1.27823	0.0656517	0.0997237	0.0321373	-0.561604	0.00766234	2.42266	1.59307	0.0205341	-0.0811922
0.041667	-0.0733384	-0.0571035	0.0466829	0.765386	1.00506	-0.399281	0.865069	-0.0181484	-0.191051	-1.2099	0.312377	0.0999988	-0.0422679	-0.376562	-0.14011	-0.308685	-0.533379	-0.306094	0.0999999	-0.036774	-0.211991	0.0876632	-0.335735	-0.782274	-0.613216	-0.223317	1.71769	1.28039	0.0656517	0.0997237	0.00426483	-0.56403	0.023345	2.4245	1.61147	0.0205341	-0.0811922
0.05	-0.0764138	-0.0491201	0.0344546	0.765654	1.0057	-0.39867	0.845182	-0.00985335	-0.193203	-1.07209	0.326764	0.0999988	-0.0422679	-0.373091	-0.125677	-0.277829	-0.608199	-0.33076	0.0999999	-0.036774	-0.213595	0.0809705	-0.334738	-0.789494	-0.61617	-0.241104	1.72538	1.28099	0.0656517	0.0997237	-0.0264128	-0.563983	0.0360145	2.42185	1.62616	0.0205341	-0.0811922
0.058333	-0.0764694	-0.040609	0.0229138	0.765852	1.00581	-0.398113	0.818231	-0.00232719	-0.196775	-0.939086	0.338777	0.0999988	-0.0422679	-0.366769	-0.110611	-0.246439	-0.694377	-0.342948	0.0999999	-0.036774	-0.218639	0.0738693	-0.332455	-0.792687	-0.618006	-0.258279	1.73255	1.28031	0.0656517	0.0997237	-0.0594488	-0.561359	0.0461251	2.41438	1.63534	0.0205341	-0.0811922
0.066667	-0.0735151	-0.0319758	0.0119854	0.76602	1.00537	-0.397598	0.78579	0.00432357	-0.201728	-0.814432	0.348141	0.0999988	-0.0422679	-0.358418	-0.0958101	-0.217293	-0.790228	-0.345032	0.0999999	-0.036774	-0.226886	0.0667375	-0.328616	-0.792089	-0.618921	-0.274732	1.73928	1.27874	0.0656517	0.0997237	-0.0942602	-0.556124	0.0541866	2.40176	1.63711	0.0205341	-0.0811922
0.075	-0.0676863	-0.0236645	0.00157302	0.766183	1.00434	-0.397121	0.749729	0.0100572	-0.207742	-0.70208	0.354109	0.0999988	-0.0422679	-0.348795	-0.0822189	-0.192846	-0.893888	-0.338924	0.0999999	-0.036774	-0.237972	0.0599698	-0.322932	-0.787919	-0.619146	-0.290254	1.74562	1.27679	0.0656517	0.0997237	-0.13018	-0.548346	0.0606623	2.3837	1.62997	0.0205341	-0.0811922
0.083333	-0.0592742	-0.0161219	-0.0084083	0.766349	1.00271	-0.396682	0.712033	0.0149268	-0.214161	-0.605912	0.355349	0.0999988	-0.0422679	-0.338448	-0.070714	-0.174796	-1.00347	-0.325889	0.0999999	-0.036774	-0.251427	0.0539543	-0.315155	-0.780317	-0.618929	-0.304541	1.75161	1.27501	0.0656517	0.0997237	-0.166521	-0.53821	0.0658689	2.36	1.61331	0.0205341	-0.0811922
0.091667	-0.0487248	-0.0097668	-0.0180062	0.766504	1.00046	-0.39628	0.674606	0.0190996	-0.220037	-0.529284	0.350147	0.0999988	-0.0422679	-0.327594	-0.0620162	-0.163856	-1.11718	-0.306641	0.0999999	-0.036774	-0.266707	0.0490612	-0.30512	-0.769303	-0.618504	-0.317222	1.75728	1.27385	0.0656517	0.0997237	-0.202642	-0.525995	0.0699069	2.33061	1.58778	0.0205341	-0.0811922
0.1	-0.0366135	-0.00497284	-0.0272258	0.766614	0.997602	-0.39591	0.639101	0.0228624	-0.224269	-0.474677	0.337001	0.0999988	-0.0422679	-0.316049	-0.0566493	-0.159757	-1.23344	-0.281631	0.0999999	-0.036774	-0.283232	0.0456343	-0.292748	-0.754752	-0.61806	-0.327906	1.76268	1.27362	0.0656517	0.0997237	-0.237979	-0.512032	0.0726447	2.29565	1.5555	0.0205341	-0.0811922
0.108333	-0.0236137	-0.00205998	-0.0360544	0.766623	0.994149	-0.395556	0.606815	0.0265904	-0.225855	-0.443519	0.315552	0.0999988	-0.0422679	-0.303221	-0.0549317	-0.161433	-1.35093	-0.251321	0.0999999	-0.036774	-0.300435	0.0439785	-0.278021	-0.736403	-0.617709	-0.336237	1.76788	1.27448	0.0656517	0.0997237	-0.272055	-0.496669	0.0737642	2.25538	1.52004	0.0205341	-0.0811922
0.116667	-0.0104539	-0.00128136	-0.0445086	0.766469	0.990115	-0.395203	0.578633	0.030725	-0.224048	-0.436068	0.28742	0.0999988	-0.0422679	-0.288148	-0.057006	-0.167312	-1.46849	-0.216385	0.0999999	-0.036774	-0.317784	0.0443447	-0.260918	-0.713897	-0.617465	-0.341935	1.77299	1.27649	0.0656517	0.0997237	-0.304464	-0.480228	0.0728466	2.21024	1.48624	0.0205341	-0.0811922
0.125	0.00211999	-0.00281224	-0.0526774	0.76608	0.985538	-0.394832	0.554991	0.0357267	-0.218501	-0.451323	0.256581	0.0999988	-0.0422679	-0.269579	-0.0628624	-0.175625	-1.58513	-0.177725	0.0999999	-0.036774	-0.334781	0.0469018	-0.241368	-0.686835	-0.617228	-0.344816	1.7782	1.27977	0.0656517	0.0997237	-0.334848	-0.463001	0.0694806	2.16086	1.4598	0.0205341	-0.0811922
0.133333	0.0133828	-0.00673194	-0.060744	0.765382	0.980531	-0.394426	0.535822	0.0420202	-0.209325	-0.486873	0.228881	0.0999988	-0.0422679	-0.24609	-0.0723632	-0.184665	-1.69982	-0.136379	0.0999999	-0.036774	-0.350946	0.0517032	-0.219227	-0.654852	-0.616778	-0.344787	1.78372	1.28454	0.0656517	0.0997237	-0.362897	-0.445243	0.0633544	2.10808	1.44688	0.0205341	-0.0811922
0.141667	0.0226791	-0.0129925	-0.0689711	0.764314	0.975333	-0.39397	0.520467	0.0499198	-0.197077	-0.538763	0.210695	0.0999988	-0.0422679	-0.216247	-0.0852269	-0.19296	-1.81142	-0.0933924	0.0999999	-0.036774	-0.365803	0.0586419	-0.194316	-0.617706	-0.615797	-0.341826	1.78979	1.29114	0.0656517	0.0997237	-0.388388	-0.427208	0.0543191	2.05297	1.45337	0.0205341	-0.0811922
0.15	0.0295101	-0.0213758	-0.0776481	0.762858	0.970287	-0.393443	0.507619	0.059554	-0.182579	-0.601529	0.207133	0.0999988	-0.0422679	-0.178796	-0.100971	-0.19934	-1.9185	-0.049704	0.0999999	-0.036774	-0.378866	0.0673992	-0.166505	-0.575361	-0.613889	-0.335947	1.7967	1.3	0.0656517	0.0997237	-0.411239	-0.40918	0.0424169	1.99687	1.48419	0.0205341	-0.0811922
0.158333	0.0335533	-0.0314423	-0.0870159	0.761051	0.96569	-0.392821	0.495343	0.0708079	-0.166538	-0.668572	0.220538	0.0999988	-0.0422679	-0.132881	-0.118853	-0.20298	-2.01933	-0.00608203	0.0999999	-0.036774	-0.389696	0.0773997	-0.135828	-0.528071	-0.610619	-0.327199	1.80474	1.31143	0.0656517	0.0997237	-0.431574	-0.391531	0.0278843	1.94139	1.54237	0.0205341	-0.0811922
0.166667	0.034752	-0.0424859	-0.097181	0.75896	0.961695	-0.392087	0.481281	0.0832334	-0.149382	-0.732924	0.249982	0.0999988	-0.0422679	-0.0782353	-0.137827	-0.203413	-2.11187	0.0368491	0.0999999	-0.036774	-0.397943	0.087796	-0.102574	-0.476447	-0.605552	-0.315675	1.81423	1.32549	0.0656517	0.0997237	-0.44974	-0.374752	0.0111468	1.88835	1.62819	0.0205341	-0.0811922
0.175	0.0333285	-0.0535314	-0.10805	0.756675	0.958359	-0.391248	0.462977	0.0959789	-0.13127	-0.788196	0.291791	0.0999988	-0.0422679	-0.015302	-0.156546	-0.20054	-2.1939	0.0785013	0.0999999	-0.036774	-0.403402	0.0975036	-0.0673286	-0.421486	-0.598297	-0.301565	1.82554	1.34186	0.0656517	0.0997237	-0.466273	-0.359478	-0.00719002	1.83973	1.73845	0.0205341	-0.0811922
